<?xml version="1.0" encoding="UTF-8"?>
<svg id="Laag_1" xmlns="http://www.w3.org/2000/svg" version="1.1" viewBox="0 0 259 45">
  <!-- Generator: Adobe Illustrator 29.1.0, SVG Export Plug-In . SVG Version: 2.1.0 Build 142)  -->
  <defs>
    <style>
      .st0 {
        fill: #57bfd2;
        fill-rule: evenodd;
      }

      .st1 {
        fill: #f6ecc8;
      }
    </style>
  </defs>
  <path class="st1" d="M232.2,5c-9.9,0-17.9,7.8-17.9,17.3s0,.3,0,.5h0v8.9h10v-8.8c0-.2,0-.4,0-.5,0-4.2,3.5-7.6,7.8-7.6s5.9,1.8,7.2,4.5c.2.4.4.7.6,1l8.5-5.1c-2.9-6.2-9.3-10.1-16.3-10.1Z"/>
  <path class="st0" d="M249.3,20.4s-1.6,7.7-.3,10.2c1.3,2.4,4.3,3.4,6.8,2.1,2.4-1.3,3.3-4.5,2-6.9-1.3-2.4-8.5-5.3-8.5-5.3Z"/>
  <path class="st1" d="M189,30c-.1,0-.2,0-.3,0,0,0,.2,0,.3,0Z"/>
  <path class="st1" d="M189.5,30.1c-.3,0-.6,0-.9-.1.3,0,.6.1.9.1Z"/>
  <path class="st1" d="M189.5,5c-9.9,0-17.9,7.8-17.9,17.5s8,17.4,17.7,17.5h3.7v-9.5c-1.3,0-2.9-.2-4.1-.3-.2,0-.5,0-.7,0-.1,0-.2,0-.3,0,0,0-.1,0-.2,0,0,0,0,0,0,0-3.5-.8-6.1-3.9-6.1-7.5s3.5-7.8,7.9-7.7c1.8,0,3.2.5,4.5,1.4,1.8,1.2,2.9,3,2.9,5.2s-2.1,5.4-5,6v.2c.8,0,2,0,3.5,0h11.3c.5-1.6.7-3.3.7-5,0-9.6-8-17.5-17.9-17.5Z"/>
  <path class="st1" d="M189.2,30c-.2,0-.4,0-.5,0,.2,0,.3,0,.5,0Z"/>
  <path class="st1" d="M188.7,30s0,0,0,0c0,0,0,0,0,0Z"/>
  <path class="st1" d="M14.2,22.4c0-4.2,3.5-7.6,7.8-7.6s7.8,3.4,7.8,7.6-3.5,7.6-7.8,7.6c-4.3,0-7.8-3.4-7.8-7.6ZM40,22.4c0-.2,0-.5,0-.7V0h-10.1v6.6c-2.4-1.1-5-1.7-7.8-1.7-9.9,0-17.9,7.8-17.9,17.5s8,17.5,17.9,17.5,17.9-7.8,17.9-17.5Z"/>
  <path class="st1" d="M55.2,22.5c0-4.2,3.5-7.6,7.8-7.6s7.8,3.4,7.8,7.6-3.5,7.6-7.8,7.6c-4.3,0-7.8-3.4-7.8-7.6ZM81,22.5c0-9.7-8-17.5-17.9-17.5s-17.9,7.8-17.9,17.5,8,17.5,17.9,17.5c9.9,0,17.9-7.8,17.9-17.5Z"/>
  <path class="st1" d="M98,22.6c0-4.2,3.5-7.6,7.8-7.6s7.8,3.4,7.8,7.6-3.5,7.6-7.8,7.6-7.8-3.4-7.8-7.6ZM98,38.4c2.4,1.1,5,1.7,7.8,1.7,9.9,0,17.9-7.9,17.9-17.6s-8-17.6-17.9-17.6-17.9,7.9-17.9,17.6,0,.4,0,.6v21.7h10.1v-6.5Z"/>
  <path class="st1" d="M140.7,22.6c0-4.2,3.5-7.6,7.8-7.6s7.8,3.4,7.8,7.6-3.5,7.6-7.8,7.6-7.8-3.4-7.8-7.6ZM140.7,38.4c2.4,1.1,5,1.7,7.8,1.7,9.9,0,17.9-7.9,17.9-17.6s-8-17.6-17.9-17.6-17.9,7.9-17.9,17.6,0,.4,0,.6v21.7h10.1v-6.5Z"/>
  <path class="st1" d="M2.7,7.4h.3c.4,0,.7-.1.7-.5s-.2-.5-.7-.5-.3,0-.3,0v.9ZM2.7,8.9h-.5v-2.8c.2,0,.5,0,.8,0s.7,0,.9.2c.2.1.3.3.3.6s-.3.6-.6.7h0c.3,0,.4.3.5.7,0,.4.1.6.2.7h-.5c0,0-.1-.3-.2-.7,0-.4-.3-.5-.6-.5h-.3v1.2ZM3.2,5.4c-1.1,0-2.1.9-2.1,2.1s.9,2.1,2.1,2.1c1.2,0,2.1-.9,2.1-2.1s-.9-2.1-2.1-2.1h0ZM3.2,5c1.4,0,2.5,1.1,2.5,2.5s-1.1,2.5-2.6,2.5c-1.4,0-2.6-1.1-2.6-2.5s1.2-2.5,2.6-2.5h0Z"/>
</svg>