<svg xmlns="http://www.w3.org/2000/svg" xmlns:xlink="http://www.w3.org/1999/xlink" version="1.1" width="1080" height="200" viewBox="0 0 1080 200" xml:space="preserve"><g transform="matrix(1.01 0 0 1.01 540 289.38)"><path fill="#baccea" style="stroke: none; stroke-width: 0; stroke-dasharray: none; stroke-linecap: butt; stroke-dashoffset: 0; stroke-linejoin: miter; stroke-miterlimit: 4; fill-rule: evenodd; opacity: 1;" transform=" translate(-540, -794.14)" d="M 0 542.25 L 26.1 538.41 C 51.3 534.5699999999999 102.6 526.88 153.9 528.8 C 206.10000000000002 530.7199999999999 257.4 542.25 308.70000000000005 540.3299999999999 C 360.00000000000006 538.41 411.30000000000007 523.04 462.6 526.8799999999999 C 513.9 530.7199999999999 566.1 553.7799999999999 617.4000000000001 553.7799999999999 C 668.7000000000002 553.7799999999999 720.0000000000001 530.7199999999999 771.3000000000001 519.1999999999998 C 822.6 507.66999999999985 873.9000000000001 507.66999999999985 926.1000000000001 515.3599999999998 C 977.4000000000001 523.0499999999998 1028.7 538.4199999999997 1053.9 546.0999999999998 L 1080 553.7899999999998 L 1080 1078.27 L 0 1078.27 L 0 542.27 Z" stroke-linecap="round" /></g></svg>